/* XPM */
static char *result[] = {
/* columns rows colors chars-per-pixel */
"64 63 52 1 ",
"  c gray33",
". c #202020",
"X c #484848",
"o c gainsboro",
"O c gray66",
"+ c gray44",
"@ c #C0C0C0",
"# c #D0D0D0",
"$ c #7C7C7C",
"% c gray22",
"& c gray55",
"* c #646464",
"= c #B4B4B4",
"- c #989898",
"; c #DC8854",
": c #C87C4C",
"> c #FC9C60",
", c #FCB080",
"< c #BC7848",
"1 c #2C2C2C",
"2 c #FCB890",
"3 c #FCBC9C",
"4 c #D08050",
"5 c #FCC4A4",
"6 c #F0945C",
"7 c #A86840",
"8 c #FCA470",
"9 c #B47044",
"0 c #9C6038",
"q c #885830",
"w c #80502C",
"e c #382C14",
"r c #ECECEC",
"t c #905C34",
"y c #5C4020",
"u c #FCD4BC",
"i c #E88C58",
"p c #744C28",
"a c #543C1C",
"s c #A0643C",
"d c #483818",
"f c #D40000",
"g c #7C0000",
"h c #A80000",
"j c #980000",
"k c #A40000",
"l c #FC0000",
"z c #880000",
"x c #700000",
"c c #640000",
"v c #4C0000",
"b c #6C4824",
/* pixels */
"                   .....    XXXXXXXX                            ",
" ooooooooooooooooooooO+. XO@ooooooo#O$X%  +Oooo@O&&+* XXXXXXXXX ",
" ooo@@@@@@@$$$$$$$$$$$$$$+++++++++++++++++++++++++++++ooooo#@@=-",
" oo@&-OOOOO$XXXXXXXX%%%%%%%%%%%%%%%%%%................oooooooooo",
" o@OOO$&OO-$X--------------------------------------- .+OO&&OO&&O",
" =@&O&O$O&-$X--------------------------------------- .+$&O&$&O&&",
" =@-OO&O&&&$X--------------------------------------- .+-O&O-O&O-",
" &@&-&O&O-O$X-------------$*XXXXXXX$&--------------- .+--OO--O$-",
" &@&&-&&&&&$X------------ XX.........XX$------------*.+O&O&O&O&-",
".+@O&-OO-&-$X----------- X..%% %%%%%...X------------*.+&---&---&",
". @&-&O&&-O$X----------;:+%%%  &$ %X %%..-----------*.+&++**    ",
". @$OO&-&-O$X---------->,,,+:<+$&*1*+*%1.X----------*.       XX%",
"% $     *+$$%---------;,223,+4<  %1X XX1..*---------*.XX%%1.....",
"%....%XX   $%--------->,225,+4%%%%1%%%%1..X---------*...........",
" %......111$%-------->,,25,,,6%%%%1%%%%1..1---------*..11%%%%%X ",
"&$+ X%%....$%--------:7<85,,,,900qw%%%1...1---------*.      +$OO",
"ooo@@O&$   $%---------eeq<5,,2867777w%...11---------+.+%  $-@rrr",
"ooooooooooo$%--------2:X<86,5866;667ty...1X---------+. % &@oo=@-",
"OO@@#oooooo$%-------2u,;8,,,866i>y76yy..1X+---------+. % Oo#@@-=",
"&OOO-&@@O@O$%------5u58>;2,866i;84w8yy..1+----------+. % @o=O--O",
"O&&&&O-&-&O$%------i<<<:>;>>>i;;476<yy.1X-----------+. % @o@&-&&",
"&&-&-OOOO-&$%--------.y8;8>>6i;:>84pyy.1+-----------+. . @oO&&&-",
"&OO&O-O&-OO$%--------y0,8686i:<74qpppyyX------------+. .Xoo&-OO-",
"O&&O&-&&&&O$%--------2>>,866:770<;ttpyy+------------+. .XooO&-&&",
"&O&&-&O-&O-$%--------486,8>i:70098;<qyy-------------+. .Xoo&O---",
"    ++&&&&&$%--------828;>;<0t098886<7pp------------+. .XoO$    ",
"           $%--------68;<70tt09;88<<twpp$&----------+.%.XO$     ",
".....%%%%%%$%-----------0qqq09;8<<tttwwapp+&--------+...........",
"...........$%-------------90998<tt0tqpawwppp+&------+.%%........",
"  X%%111...+%-----------&49948tt000pawsssttwqp+&----+.       %  ",
"    XXXXXXX+.---------&&4<4490099paws999999900qp+---+.$&ooo@O1% ",
"  +O=oooooo+.--------&+44<4:s99qaws999999999990qp$--+.&=oo@O+11 ",
" XOoooooooo+.-------&+p4s44::9pa0999970w00999990wp$-+.+O&O&+ .1 ",
" X=o=OOO&O&+.-------+wp4s44:9pps99997sww0000qqqqqwp-+.+-&&& %.. ",
" Xoo&O&OOO&+.------&wwp4ws49pp999999stpw00q000qqqqp-+.+&O&& %.. ",
" XooO--&-&O+.------+ttp0pspas9999997twyy9999900qwwy-+.+O-O- %.. ",
" Xoo&-&O&-&+.------0ttpwpsst9999999swyy994999090ppd-+.+--&- %.. ",
" XoO&&O&&&&+.-----&0ttypqss999999977wy9949940t90pyd-+.+&--O %.. ",
" XO+++&&-&O+.-----+0ttppss<<::99990wyy9499490t9qpyd-+.+O-&O %.. ",
" X   X+OO&&+.-----s0ttpqs<<::<<<p0qyy0099940ts9qpyd-+.+&OO& %.. ",
" X%%..X    +.----&sstppss<<:<<<p0qqy-oo0449st99wyd -+.+O&-& %.. ",
"    %..%%%%+.----+stttpsstpdd<<pqyy-11 of4p0t99pyd+-+.+&-&O %.. ",
"     %.....+.---&00ttpqs9<<ddppqy-1o1#ooofpt099pyd$-+.+-&&+ %.. ",
"      %%111+.---+777tpss<<:w7qqyg- 1111 @hjjt99pdy--+.      %.. ",
"  XX       +.---0077pps9<<:t7qqgklooo1o1-hjzztqpdy--+.%%%%%%%.. ",
" -@@@@=-+* +.---97ttpws9<<<7qy0jjf-11 o-$jzzgxpdyy--+.........% ",
" @ooooooooo+.---9t7tsts9<<<qyi<:waf-@@-$jzzgxcpdyy--+........%% ",
" @oo#######+.--;:9tp900qqq<i:si::waffhjjzzgxccvyyp--+.111111%%  ",
" @o#-&&&&OO+.--;4:99900000iiissi<99aajjzzgxccvyypp--+. XXXXXXXX.",
" @#-&&-OOO-+.---;44;;000::ii:i<ii900aazzgxccvyyypq--+.&&OOOOOO$.",
" @#&-O&&&-&+.----;;-;;99<ii<<:iii:00pazgxccvyyyqq0--+.&=ooooo@ .",
" @#O&OO&O-&+.---------::9i<7700:::0qbaaxcvyyyypq09--+.+OO&&O&& .",
" @#OO-&-&&&+.---------6::<9977wwwwqpppbcvyyppqt09:--+.+O&O&&O& .",
" @#&-&O&O&O+.----------6:::::<997qqqqqqvyppqt09::>--+.+&&O&-&O .",
" @#O&-&&&-&+.------------6;;;;;;;::7000pqqt09::>>---+.+&-&O&O& .",
" @#&O&-&&&&+.---------------66666666644444::>>------+.+O&-&--* .",
" @#&&-&&&&&+.---------------->>>-----iiiiiii--------+.*******  .",
" @#O&&&&&O&+.---------------------------------------+.        %.",
" @#&&&O&-&O+.     *******++++++++++++++++++++++++++++...........",
" -=********+....................................................",
"  +XXXX%%%%%%%%1.11........................1111%%%%%%.%%%%%%%%% ",
" ................  X%111111111111111111111%                     ",
"%%%%%%%%%%%%%%%%%%%%%%%%%%%%%%%%%%%%%%%%%%%%%%%%%%%%%%%%%%%%%%%%"
};
