/* XPM */
static char *ww1684775823[] = {
/* columns rows colors chars-per-pixel */
"60 60 48 1 ",
"  c #3E0100",
". c #450600",
"X c #4A0600",
"o c #460A00",
"O c #4C0C01",
"+ c #520600",
"@ c #520E03",
"# c #5B0C05",
"$ c #540F08",
"% c #4E1204",
"& c #4F1508",
"* c #531205",
"= c #591407",
"- c #591806",
"; c #551509",
": c #59160A",
"> c #551A0C",
", c #5B1A0D",
"< c #5C1710",
"1 c #571D10",
"2 c #5D1D11",
"3 c #60170E",
"4 c #611D0E",
"5 c #621E13",
"6 c #681F16",
"7 c #5E210F",
"8 c #5D2214",
"9 c #5F2619",
"0 c #632215",
"q c #682516",
"w c #632817",
"e c #692816",
"r c #652519",
"t c #69251A",
"y c #65291B",
"u c #6B2A1D",
"i c #70271E",
"p c #712D1F",
"a c #71301E",
"s c #6C2720",
"d c #6D2D21",
"f c #712D22",
"g c #742F28",
"h c #6E3023",
"j c #733124",
"k c #743529",
"l c #79362A",
"z c #7A392D",
/* pixels */
"O;y082.&&>>&&781w&77>,2.oy82rO 25tq5X28;8%;25ii$=jr@qO,,0ur%",
"2OOo,r>>7&&&171&98&8O08O8Oo2y8,2@@$6;092;;00:5fu,X$q6X2*O;8r",
"r;*%*2>;;%&>8&&18>u;;Or,2O**OrdX:@*u5,O%;,w<*:tg6:.:j,;;*O*r",
"2O;;;28>%&>8&%19;wrho><t;*>OordO$@@55,;;88,;5536uj$Xuu**;%*0",
"f,***,2O;28;%;8r;@u5uO54,OX:rrrt@@$@:;<0r,*:uu:$itt:X,6O@*,t",
"05,,*O*O22;O%22;,;Xtru***<,5r:*t6t5O;;,2,**,66:@@5ft@@@5:55:",
" *,6,@2r2:@O:2:O5::@ttr$Otf5@O@:55,Or250;@,r::2:+66tu5.tut,O",
":r**,*,2,**5r2:,5u5$=tut=$:r,:<6,::Oq,:*2*0u,,trt@#u6g*$r,;>",
":,*@:2,,:Oq5@:OO.:l$@<rtt$@@u:::*@:t5,:Xu5,=OO;Of:5#6tf;@:55",
"2;O*08**@O25:5<O5@=,:@Ot:l:O5q$tO;rr:*:@@:tt,,<<#;:@Orf5;*:0",
">*O2w;%&r,OOO;tr:*O,:r@:l5t*:0f.*8u,@:5:*@X$tr;O@@;d;:<j8;;w",
"&>,2>%%722@@*;t2X:@@:ltO@u0l*<X<00:@*6t5@:@$r0*%;*<l0*%yd0,;",
"&88&&&&9%2%;;;r0@OO*022>OO0yd*>rw;O%,666X$@:ds*%O>r><;;%0r8&",
">8&%>818;0;*;;200;;;wo20s;Od;zu*;:,2t5:q5:@@rs<%>:,o829>%8y9",
"81&&88&>o;99u8OO0y92;%22>hroh2>u%8r0r:$3tuf6%O2gr2%%87>y%898",
"7>&88&%>o%,;wroO;t,d;O;,>>;%92ryO05*::O+5,t6X.12<r%OO>%>&&>7",
"99y%O880%2*OO,uO5+#$i*5,0.*sy2rue-@-u7=4=O$rs<$$;*r%>2,%>81>",
"&>8y%,OuO*O,;%yu#+#+65r$O*yrOO>0ew*=*q,4@,X@s0.<@@r2<;O;8>;&",
"8%y9hO@5j2O@O%0r=##+565@O2y:@ry=eeaO=-u,X:$:gs$$@@<0;*O2,>&>",
"9>Od2y@:5;OO*8dr5##3:;*:y0;O:fu*=eujO,,-@X:5<65X$::*O8,2**>2",
"7%& r0d$.@6t<,,:63:5:@*0r,@*:4:4=Oeeu%:Od5r5$2g2<>*OOr,>%*>8",
"%9&7@tur3$rd6@.O:6r*@;00:**5t,:t-=Opeu=*:r<XXOO;0%*222O;%>28",
"*8w85@tti@@:,t,,,,5O:<r:*,36i536q4,*uet:,008r<<<<O><8;%;><,>",
"O%%u6+:ti36@@t2,rO*Xu,0;@tu4$@+$=aq@*qer* *0%<9%%*0%;*;28>%O",
";%,>O=$X6tg=$5:;,o2952@*O<$3i3Xt==O=O:-y9%%871%&;8>>;&;%;22,",
"r%*O*r64$f3i:=t0;&>y,O,u5:@@5q5$@=*@j:*y9k%%y7 122*&>78*O%>y",
"8&*%$rtt@+u0f::;>9>8*Out:O@=@tiX@@@=z,O-w7w&&w&11>%&>,>O*O;r",
"8&*%*5,5$@:t,lO*7y2;%2u*5@*$@tj@@X@t:4-%%8wy> w&;;%&8,;%*O;2",
"y8;%:0,,0r:@d2z88&8;;d0*fr*@,rt0,*:6O0y,--y>ww 8&>;88;88O;,2",
"%>y98:@,>t:r;y989o8900O::ttr0OOr5uuX*;,-97%8w>w&&888&o>88r2O",
" &yy8;O<,Od;28*7y7>9,:*$X4ru8oo>2tt@;@&*9 >7%8w%88>>&o**rr<O",
"9&oo0u>22,.,82uyyw**=5i@q$O*,82;*X:uO5y> 787>8w9&&%,8;;;O@2t",
"9%*-*2r:*X:r5;O*qua-*-q=-@*-=44*:%*;<>*O2;,2%%y2u%X;r:=:#$@t",
"d&.O@5r,@:r0,4<u-quuO*,p==*O@peO*OO22*O>*0%O<;:wrr**$u3+++@6",
"f,***,4;:0u;@,ru*@ppuO,4-O@=4qq-;O*,>**<>r;;r2;>0ruO3:6+#3:u",
":,rr:@**05,O@02:,@Opqa*O==3q-*-0;2,OO<8:;O*8>;<.;r2f@:+5633:",
"X:rr:*:5r=;*,t,:a*=Ouwp;O0u7*O**,02OO80>OO>0::r;:Oq0g@:4t5:@",
",,:*:,,r,=,5r5;:4w,w@ueu=,-:,=*->**,22>;>u<>2;<r,5*t5f:$636:",
"r5*O45:5:*505,**=,p2=@tu0=o-u,*w*O;20>@O>r;O*XO>t5:Oqtr$;$5,",
"*,**rr:,@O,,5r;*,,:=O@:5ew*%-,%-O><,;>@O<;:0%%8*,*X@:tud@:6:",
",,;5t,*:u,:OO5t0;@@:6t2%uy9%79y <:;>@;92O;OOr0O%*Ort;@urt**u",
"*,,50**,t:O,:Ort@$:.2ur.ok88&1 8>r2%O2t*%,*;22@;<X5u0O2rjr:=",
"455,:*:d:uO**Ouu:.:Xu,r,*%y7y&17>***><22OOO>rr>OOO5<2;;O2rr;",
"05,:,,0d*f,*;:t05@:<t@,0wO%y9y9&2O*8r2;t,*O,2r2;@5r@0r8;;yju",
"2,:,tq,:O:5uj5O@6ss2;$>$>r;>99%9;,8>>:.%rry2XO1duq;X8>8h>8r9",
"ur::00,:@*05trOO<525$$&<*18o9&89;;2O;* @>00<*O>555:X,&;>&&;,",
"udr:;;,u*,,OO5t*<X;<5$$9>oos w99r>,;r0XyX*O>s5OO@ru,w28o;>8w",
"*rdt:@;q=:X:*@gr$$2X2<9&o11>9%%902< ;uO:O,**r2@>*O,,8O*;w9;O",
"2>rdd,Xea3@@@=6dO$,*,t,O*w2o&88&rrt@O6f=@3@+udO@@%<s9O$sr;%-",
"kO1d0y4X3==@=5t<0@OO*;*;88;&79>7;2ru@,3:+X$35t5OOO&<;&<r==-w",
"1&oOqjq-=*455,:@t<8,,,;2>&o%>&&>%.rtu+#$i36t$5u50<*%>802X*45",
"1s1O404i-#3pq@O$@<r:O>;,;;&28>>9;;Ou5i$#6t:@@X:,s1;>rr<O=5qq",
"11uu*=eeq==55;;;:>>OO<>2%,88>&&8025Xitf#$63qr,22>O*<r<:*5q54",
"o&,w4=4qp4=@*08Or*@,r0;;o>8,&OoO;u:;@ftt$X@q;O0OO*2r:O@r54=@",
"&r%*0*O@qqr*@28%>X*20,OO;,,,2>*>%,<O3@5tu6@5<;rO<0r,*@*44445",
"8;O;*=t:*0pr;;0w%,y,%;;9;%o%28>:@*@56:@i5fO;k,%%r0:*:r4X@@:f",
">%*-@,ft@:5ue&-&>21<oOy8;%;*Oyu.,@Outt$+qfu:O*>y00O*6q4@:@$6",
"u>%%*5t,*=*2w97%2,%>;;y%r*OO;ry>@OO6:5:$:6t52278*:*:q44@X@:q",
"w7*%,5,:<<>>0uw>8;%2288or,%;2,<0$::,$454:,5yu92>*--rq440#:56",
"%0w7r:O:<0u:>w9>>&>9>>,%;0082Oor5rt:@,65u,;ry81;0q405@-p6q5$"
};
