/* XPM */
static char *result[] = {
/* columns rows colors chars-per-pixel */
"64 63 16 1 ",
"  c gray33",
". c #484848",
"X c gainsboro",
"o c #202020",
"O c gray22",
"+ c gray55",
"@ c gray66",
"# c #C0C0C0",
"$ c #D0D0D0",
"% c #B4B4B4",
"& c gray44",
"* c #7C7C7C",
"= c #646464",
"- c #989898",
"; c #ECECEC",
": c #2C2C2C",
/* pixels */
"          .XXXXXXXXXXXXXXXXoO+@#$$$$$$##@+ o..........          ",
"          .X$$$#$$$$$$#$$$+oO+#%+@++++++@ OoO&++++++*&=.........",
"++++++++o .X$#%$%$#%$##%$+=oO@X@+@+@+@+@+ OoO+XXXXXX#%@+++++++++",
"$X$$%@++o .X$@@@@+@@@@-@@* oO+#+++@@@@++& OoO+XX###$XXXXX$$$$$$$",
"@@@@@@*&o .;#-@@@@@@-@+@@& oO.@+@@++@+@&  OoO+X%@+@+@@@++@+@+@+-",
"%-@-@+*&o..;$@+@-@+---+-@+ oO.*++@+@@+@&OOOoO+X%+@+-+++@++--@-+@",
"%%*%+-= oO.;$+-+@@@+*+-@+= oO..+@@@+++@&OOO:O+X%@+-*@-*+@+@@+*@-",
"-@@--&..o:.##@-@+@+-+-++@& oo. .*OOOOOOOOOo:O*XX+@+*-*-+@+-*@@*+",
"++++& ..o:.@;@@@++-++++@+ *:oO.OOOOOOOOOooo...#$+++----++@+@@+@+",
"&&&& .OOo:.+X+@+-*++@+@+@& :oO.O::ooooo::::. .#%+@+@+++&&=======",
"  ...oooo:.&X@+-***@-++*+&=OoO....&*+@@@@-&O .%+&&===    .......",
"ooooo::::O .X$+++--++@*+@+ OoO.&@@XX;X$$-& o .+&== ...OOOOO:::::",
":::::::::O .@$+@+*+@++-++& Oo:O@#X$%+@+@+&OoOOOOOOOOOOO::ooooooo",
"OOOOOOOOOO .+$@+@-+*+*+@+  Oo:.@X#@++++++ OoO::::::::::OOOOOOOOO",
" .OOOOOOOO .&#+@-+@-@+@+@ &.o:.@;@++@+@+@ OoO.    o.............",
"---------:o .##-++--*++++&  oo.@;++@@+@++ OoO&@XX . *-----------",
"$$$$$$%%&Oo .+#+@+*+++@+&+&.oo.@$@@++@+@+ OoO@X#@o.*#XXXXXXXXXXX",
"@-+@+@@&&Oo .&-@+@@+@&+& & .oo.@$@+&&&&   OoOX#@+o.-X$%%%%%%%%%%",
"@+@+@++&&Oo. .--&&&&  & & .:oo:@+&+&OOOOOOOo=X%++o.-X%@-@-@+-+--",
"@-+@+@@& Oo. .=    ...O:oooooo:+&OOOoooooooo=X@@+o.-X@+-+-+-**++",
"@+@+@++& Oo. .::::oooooooooooo:O Ooooo::::::+X@@+o.+#+@-@-@+-+--",
"+@**++@& OoO  .Ooooooooo.......++-@@-++* :O=#X@+*o.+#@+-+-+-**++",
"++**+@+=.OoO+XXXX#%@+=O.=*@@##$XXXXXXX$-=oO*X#@@&o.*#@-+@+@+**+-",
"++@@+++=.OoOX#@---@--O .*$;;X#%########& oO+X%-+&o.&#+@-+-++@+@+",
"-@++@+& OOoOX@+-@@--@o .-;#+@+@-+@-@-++=.oO+;@+@ o..+&=   ==&*++",
"===== .OOOoOX@@@+@+@=o..-;@@@+*@@+++@+@ .oO+;@@- o oOO.......   ",
" ..OOOoooo:OX+@+@%+*=o..-;+@+-@++*+@-++ .oO+;+@+ o OoooooooooOO.",
"oooooo:::...X@-+@+@*=oO.-;-+@++*+*+++@+ .oO+;@@+ o OOOOOOO:::ooo",
".==&+-++++.oX@*-+@+*=Oo.-;@+++*+*+@*++@ .oO+;-@@ o ...       OOO",
"=+%XXX$$$@&oX@@+*+@+=Oo.+X#-+@+@**+*+@+ OoO+X++@ o.@XX%+= ..... ",
"=%$$#%@@-@.o;--@*+@-&.o.*$#@++*+**@+@+* O:O+X@-+ o.X++%XXXXXX-O ",
"=X%@@+@-@+&o;-@-@@+@&.oO #;@@-+@+@**+@& O:O+X+@+ o.X++@@++@++*O ",
"=X%-+@+@+@&o;-+-@+@+= o: @;@@@++*+**@+&.::.+$@@+ o.X@@++@@+@+=O.",
"=X@-@+@@*@ oX@@@-+-@= o: +;#@+@++-+@+@=.o:.+$@+@ o.$@+@@++@+@=O.",
"=X%@++@-@+ oX#*-*@@-= oo.&$#@+*-++-+-+=Oo:.+$+@  o.#@@@+@++@@ O.",
"=X%+@@+@+@ o#X+-@+-+= oo. %X@+@+@+@++= OoO.*@* OOO.@@+@@+@++@ OO",
"=X%@@+@-@+ o%X*@+++@& ooO +#@+*== ..OOOOoO. OOOO..o& .        OO",
"=X%+@@+@*@ o-X-*@@++& ooO .++= .OooooooooO. ..     ooooooooooooO",
"=X%++-@+@+ o*X@-@++@= oo:..O:::oo::::::::O.  .........OOOOOOOOOO",
"=X%@@+-@-@ o ;+@++@+= oo:...OOOOO..........  *****************O ",
"=X%++@+@+& o.;@++*+@& :o:O=*************++--@%%######%#######*O ",
"=$%@@-@+@ o:.;@+@+++= :ooO*###############$XX;;;;;;;;;;;XX$$-=:.",
"=$%-@+@@+ o:.;+@*-+@= Oooo*#$;;;;;;X;;X;;;;;;XX$#%###@##%##%* :.",
"=#%@+@+++ oO.X@@+@++= Oooo*#$%#####@##@###%%@--++@+@+++@+@+@& :O",
".#++@+&&& oO.$++@+@+& Oooo=#X%++++++@+@@-+-@@@-*-+@@-+@+@@@+& :O",
".%@@@+   o:O.%@++@++& Oooo.#X#+-+@+@+-@++-@@+-+-++*+--+@+@+@& :O",
".***     o:O.--@+++&= Oooo:%X$@@++++*++@+-+@-*++@++@+**+*-+-& oO",
".Oooo    oO..*======  Oooo:@X$++@+@++@+**--+@+@-+@++*+++@+**& oO",
"   .Ooo:o:O.OOOOOOOOOOOooo:+$%%++@+@*++-*-+-*@++*++++@+*+-**& oO",
".......:::O.OOoooooooooooo:+-&&&&&&&@+@@++*+++*++@+@++@++++-& oO",
".*@@@@-+=.. OO::::::::::::O .OO::::: &&*+*******************= oO",
".@#XXXXX#@@+&= .OOOOOOOOOO. ..OOOOOO:.                       o:O",
".@X@@+#$XXX#@@@@@@@@+++**&==  .....OO:::::::::::::ooooooooooo:O.",
".@X@@@%%+@#XXXXXXXXXXXX$$##@@@@@+. .OOOOOOOOO:::::::::::::::OO..",
".@X@+@**@-+*@+@+@+@@+@+@@%#XXX$#*O. ...OOOOOOOOOOOOOOOOOOOOO... ",
".@$@@@-@+-+-@++@**+@*+++@+@+@@@*=oO .@XX@*...   ............    ",
".@#@+@**-@+@@-+*@*+*-+@+@+@+@@@= oO..X@@XXXX%  .%XXXXXXX$#%-*.. ",
".@+============================  OoO.X%%%%%%%= *X@@@+@+@-@+@X-o ",
".+=OOOOOOOOOOOOOOOOOOOOOOOOOOOOOOOo:.%@%%-=-+=.%@+@+@@@+@+@+@ o ",
".Oooooooooooooooooooooooooooooooooo:.O.O =====.X@--@@--@-@@++ o ",
" .OOO:::::::::::::::::::::::::::::::O  OOoooooO               o ",
"    ........OOOOOOOOOOOOOOOOOOOOOOOOO    OOOOOO  oooooooooooooo ",
"OOOOOOOOOOOOOOOOOOOOOOOOOOOOOOOOOOOOOOOOOOOOOOOOOOOOOOOOOOOOOOOO"
};
